<svg xmlns="http://www.w3.org/2000/svg" version="1.1" xmlns:xlink="http://www.w3.org/1999/xlink" width="512" height="512" x="0" y="0" viewBox="0 0 511.995 511.995" style="enable-background:new 0 0 512 512" xml:space="preserve" class=""><g><linearGradient id="a" x1="255.997" x2="255.997" y1="360.991" y2="151.003" gradientUnits="userSpaceOnUse"><stop stop-opacity="1" stop-color="#7e7e7e" offset="0"></stop><stop stop-opacity="1" stop-color="#d6d6d6" offset="1"></stop></linearGradient><path fill="url(#a)" d="m505.994 243.994-120-90a15.028 15.028 0 0 0-17.285-.498 15.012 15.012 0 0 0-6.27 16.128l10.342 41.367H15c-8.291 0-15 6.709-15 15v60c0 8.291 6.709 15 15 15h357.781l-10.342 41.367a15.012 15.012 0 0 0 6.27 16.128c5.346 3.544 12.225 3.283 17.285-.498l120-90c8.006-5.989 7.996-18.013 0-23.994z" opacity="1" data-original="url(#a)"></path></g></svg>