<svg xmlns="http://www.w3.org/2000/svg" version="1.1" xmlns:xlink="http://www.w3.org/1999/xlink" width="512" height="512" x="0" y="0" viewBox="0 0 512 512" style="enable-background:new 0 0 512 512" xml:space="preserve" class=""><g><linearGradient id="a" x1="166.799" x2="431.965" y1="345.485" y2="80.319" gradientUnits="userSpaceOnUse"><stop stop-opacity="0.81" stop-color="#787878" offset="0"></stop><stop stop-opacity="0.83" stop-color="#e7e7e7" offset="1"></stop></linearGradient><linearGradient id="b" x1="13.244" x2="463.598" y1="498.903" y2="48.549" gradientUnits="userSpaceOnUse"><stop stop-opacity="1" stop-color="#7952f7" offset="0"></stop><stop stop-opacity="1" stop-color="#8c98ff" offset="1"></stop></linearGradient><path fill="url(#a)" d="M431.973 80.327c-46.958-46.958-122.971-46.73-169.688-.044-46.908 46.575-47.138 122.607-.029 169.746 47.116 47.085 123.43 46.317 169.717 0 46.465-46.405 46.96-122.803 0-169.702zM230.41 260.62l-63.633 63.633c-5.859 5.859-5.859 15.352 0 21.211 5.86 5.86 15.352 5.859 21.211 0l63.633-63.633c5.859-5.859 5.859-15.352 0-21.211s-15.351-5.859-21.211 0z" opacity="1" data-original="url(#a)" class=""></path><path fill="url(#b)" d="M463.672 48.626c-64.704-64.708-168.44-64.961-233.401 0-64.199 64.199-64.199 168.9 0 233.099 64.065 64.065 168.592 64.812 233.401 0 65.034-65.034 63.838-169.876 0-233.099zm-42.299 190.799c-40.54 40.536-107.453 41.048-148.5 0-41.1-41.1-41.1-107.701 0-148.5 40.8-40.8 107.399-41.1 148.5 0 41.322 41.326 40.322 108.179 0 148.5zm-297.017 84.828L13.162 435.173c-17.549 17.549-17.549 46.099 0 63.647 17.616 17.617 46.105 17.528 63.633 0L187.988 387.9c17.549-17.549 17.549-46.099 0-63.662-17.578-17.519-46.113-17.505-63.632.015z" opacity="1" data-original="url(#b)" class=""></path></g></svg>