<?xml version="1.0" encoding="utf-8"?>
<svg viewBox="113.8502 100.0051 246.0522 262.4887" xmlns="http://www.w3.org/2000/svg">
  <path d="M 359.678 249.487 C 363.763 210.259 311.091 125.9 281.691 106.354 C 252.291 86.808 209.63 117.261 183.28 132.209 C 156.93 147.158 111.272 161.128 123.589 196.047 C 135.906 230.965 217.835 332.814 257.184 341.721 C 296.532 350.627 355.594 288.715 359.678 249.487 C 363.763 210.259 311.091 125.9 281.691 106.354" fill-opacity="0.61" stroke-width="0" stroke="hsl(340, 45%, 30%)" style="fill: rgb(104, 101, 247);"/>
  <path d="M 352.006 269.395 C 356.091 230.167 303.418 145.808 274.019 126.262 C 244.619 106.715 201.958 137.168 175.608 152.117 C 149.257 167.066 103.6 181.036 115.917 215.955 C 128.234 250.873 210.163 352.722 249.511 361.629 C 288.86 370.535 347.922 308.623 352.006 269.395 C 356.091 230.167 303.418 145.808 274.019 126.262" fill-opacity="0.61" opacity="1" stroke-opacity="1" stroke-width="0" stroke="hsl(340, 45%, 30%)" style="fill: rgb(104, 101, 247);"/>
</svg>