<svg xmlns="http://www.w3.org/2000/svg" version="1.1" xmlns:xlink="http://www.w3.org/1999/xlink" width="512" height="512" x="0" y="0" viewBox="0 0 512 512" style="enable-background:new 0 0 512 512" xml:space="preserve" class=""><g><linearGradient id="a" x1="248.5" x2="248.5" y1="497" y2="0" gradientUnits="userSpaceOnUse"><stop stop-opacity="1" stop-color="#7952f7" offset="0"></stop><stop stop-opacity="1" stop-color="#8c98ff" offset="1"></stop></linearGradient><linearGradient id="b" x1="309" x2="309" y1="512" y2="106" gradientUnits="userSpaceOnUse"><stop stop-opacity="1" stop-color="#969696" offset="0"></stop><stop stop-opacity="1" stop-color="#ebebeb" offset="1"></stop></linearGradient><path fill="url(#a)" d="M376 256c-7.934 0-15.657.866-23.165 2.342l7.02-16.946c2.813-6.768.293-14.59-5.918-18.472l-25.563-15.956C329.865 198.496 331 189.892 331 181c0-8.41-1.146-16.523-2.483-24.56l25.42-15.864c6.211-3.882 8.73-11.689 5.918-18.472l-13.242-31.963c-2.813-6.768-10.195-10.576-17.227-8.877l-31.225 7.227c-7.225-9.13-15.414-18.322-24.536-25.558l7.095-30.677c1.641-7.148-2.109-14.443-8.877-17.241L239.911 1.159a14.933 14.933 0 0 0-18.457 5.903l-15.518 25.459C197.782 31.145 189.538 30 181 30c-8.547 0-16.8 1.143-24.961 2.523L140.547 7.077a14.983 14.983 0 0 0-18.457-5.918L90.156 15.015c-6.768 2.798-10.518 10.093-8.877 17.241l7.092 30.681c-9.121 7.234-18.309 16.427-25.534 25.554l-31.223-7.227c-7.061-1.699-14.414 2.109-17.227 8.877L1.145 122.104c-2.813 6.782-.293 14.59 5.918 18.472l25.42 15.859C31.145 164.473 30 172.588 30 181c0 8.894 1.133 17.498 2.626 25.97L7.063 222.924c-6.211 3.882-8.73 11.689-5.918 18.472l13.242 31.963c2.906 6.978 10.393 10.496 17.227 8.877l33.265-7.467c7.013 8.665 14.874 16.478 23.617 23.397l-7.216 31.238c-1.641 7.134 2.109 14.429 8.877 17.227l31.934 13.228c6.76 2.798 14.566.319 18.457-5.903l15.896-25.437C164.479 329.854 172.59 331 181 331c8.417 0 16.536-1.146 24.58-2.485l15.874 25.424c3.895 6.25 11.708 8.712 18.457 5.918l18.497-7.661C256.852 359.896 256 367.848 256 376c0 66.167 53.818 121 120 121s121-54.833 121-121-54.818-120-121-120z" opacity="1" data-original="url(#a)" class=""></path><path fill="url(#b)" d="M181 106c-41.367 0-75 33.647-75 75s33.633 75 75 75 75-33.647 75-75-33.633-75-75-75zm195 135c-74.443 0-135 60.557-135 135s60.557 136 135 136 136-61.557 136-136-61.556-135-136-135zm53.028 166.802c5.859 5.859 5.859 15.352 0 21.211s-15.352 5.859-21.211 0L376 397.207l-31.816 31.805c-5.859 5.859-15.352 5.859-21.211 0s-5.859-15.352 0-21.211L354.786 376l-31.813-31.802c-5.859-5.859-5.859-15.352 0-21.211s15.352-5.859 21.211 0L376 354.793l31.816-31.805c5.859-5.859 15.352-5.859 21.211 0s5.859 15.352 0 21.211L397.215 376z" opacity="1" data-original="url(#b)" class=""></path></g></svg>