<?xml version="1.0" encoding="utf-8"?>
<svg viewBox="149.7648 133.6438 201.2211 183.9137" xmlns="http://www.w3.org/2000/svg" xmlns:xlink="http://www.w3.org/1999/xlink">
  <defs>
    <radialGradient gradientUnits="userSpaceOnUse" cx="283.648" cy="230.212" r="199.758" id="gradient-0" spreadMethod="pad">
      <stop offset="0" style="stop-color: rgb(121, 82, 247);"/>
      <stop offset="1" style="stop-color: rgb(121, 82, 247);"/>
    </radialGradient>
    <linearGradient id="b-0" gradientTransform="matrix(0.674662, 0.386938, -0.540069, 0.857049, 0.325338, -0.386938)" xlink:href="#b"/>
  </defs>
  <g id="SvgjsG1008" transform="matrix(1, 0, 0, 1, 92.29966735839844, 80.34949493408203)">
    <svg xmlns="http://www.w3.org/2000/svg" viewBox="0 0 600 600" width="288" height="288">
      <path d="M143.50392150878906,161.81100463867188C145.86612701416016,130.70864486694336,46.06298319498698,12.795267740885416,99.80313873291016,21.25983428955078C153.54329427083334,29.724400838216148,415.9448610941569,150.59053675333658,465.9448547363281,212.59840393066406C515.9448483784994,274.6062711079915,447.4408950805664,357.67711639404297,399.8031005859375,393.3070373535156C352.1653060913086,428.9369583129883,232.48028691609701,457.28343709309894,180.1180877685547,426.3779296875C127.75588862101236,395.47242228190106,91.73226674397786,251.9684804280599,85.6299057006836,207.87399291992188C79.52754465738933,163.77950541178384,141.14171600341797,192.9133644104004,143.50392150878906,161.81100463867188C145.86612701416016,130.70864486694336,46.06298319498698,12.795267740885416,99.80313873291016,21.25983428955078" transform="translate(44.008 92.234) scale(.9025)" style="fill: url('#gradient-0'); fill-rule: nonzero;"/>
      <defs>
        <linearGradient id="b">
          <stop offset="0" class="stopColorhsl3010050 svgShape" stop-color="#492ed6"/>
          <stop offset="1" class="stopColorhsl3010070 svgShape" style="stop-color: rgb(104, 101, 247);"/>
        </linearGradient>
      </defs>
      <path fill="url(&quot;#b&quot;)" fill-opacity=".35" d="M143.50392150878906,161.81100463867188C145.86612701416016,130.70864486694336,46.06298319498698,12.795267740885416,99.80313873291016,21.25983428955078C153.54329427083334,29.724400838216148,415.9448610941569,150.59053675333658,465.9448547363281,212.59840393066406C515.9448483784994,274.6062711079915,447.4408950805664,357.67711639404297,399.8031005859375,393.3070373535156C352.1653060913086,428.9369583129883,232.48028691609701,457.28343709309894,180.1180877685547,426.3779296875C127.75588862101236,395.47242228190106,91.73226674397786,251.9684804280599,85.6299057006836,207.87399291992188C79.52754465738933,163.77950541178384,141.14171600341797,192.9133644104004,143.50392150878906,161.81100463867188C145.86612701416016,130.70864486694336,46.06298319498698,12.795267740885416,99.80313873291016,21.25983428955078" transform="translate(102.656 97.446) scale(.9025)" style="fill: url('#b-0');"/>
    </svg>
  </g>
</svg>