<svg xmlns="http://www.w3.org/2000/svg" version="1.1" xmlns:xlink="http://www.w3.org/1999/xlink" width="512" height="512" x="0" y="0" viewBox="0 0 512 512" style="enable-background:new 0 0 512 512" xml:space="preserve" class=""><g><linearGradient id="a" x1="298.997" x2="298.997" y1="381.006" y2="45" gradientUnits="userSpaceOnUse"><stop stop-opacity="0.31" stop-color="#5e5e5e" offset="0"></stop><stop stop-opacity="0.31" stop-color="#898989" offset="0.503"></stop><stop stop-opacity="0.33" stop-color="#cdcdcd" offset="1"></stop></linearGradient><linearGradient id="b" x1="256" x2="256" y1="512" y2="0" gradientUnits="userSpaceOnUse"><stop stop-opacity="1" stop-color="#7952f7" offset="0"></stop><stop stop-opacity="1" stop-color="#8c98ff" offset="1"></stop></linearGradient><path fill="url(#a)" d="M332 45c-74.443 0-135 60.557-135 135s60.557 135 135 135 135-60.557 135-135S406.443 45 332 45zM204.778 286.011l-69.39 69.39c-5.859 5.859-5.859 15.352 0 21.211s15.351 5.859 21.211 0l69.39-69.39c5.859-5.859 5.859-15.352 0-21.211s-15.351-5.86-21.211 0z" opacity="1" data-original="url(#a)"></path><path fill="url(#b)" d="M302 180c8.401 0 15-6.601 15-15v-15c0-8.401-6.599-15-15-15s-15 6.599-15 15v15c0 8.399 6.599 15 15 15zm60 0c8.401 0 15-6.601 15-15v-15c0-8.401-6.599-15-15-15s-15 6.599-15 15v15c0 8.399 6.599 15 15 15zM332 0c-99.3 0-180 80.7-180 180s80.7 180 180 180 180-80.7 180-180S431.3 0 332 0zm0 300c-66.301 0-120-53.701-120-120 0-66.301 53.699-120 120-120s120 53.699 120 120c0 66.299-53.699 120-120 120zm-42.299-85.501c-6 5.7-6 15.3 0 21 5.7 6 15.299 6 20.999 0 11.4-11.4 31.201-11.4 42.602 0C356 238.501 359.9 240 363.8 240s7.8-1.5 10.5-4.501c6-5.7 6-15.3 0-21-22.501-22.799-62.099-22.799-84.599 0zM135.389 334.19c-5.859-5.859-15.352-5.859-21.211 0L13.152 435.213c-17.534 17.534-17.534 46.069-.015 63.633.015 0 .015 0 .015.015 17.55 17.52 46.124 17.524 63.633-.015L177.81 397.823c5.859-5.859 5.859-15.352 0-21.211z" opacity="1" data-original="url(#b)" class=""></path></g></svg>