<svg xmlns="http://www.w3.org/2000/svg" version="1.1" xmlns:xlink="http://www.w3.org/1999/xlink" width="512" height="512" x="0" y="0" viewBox="0 0 512 512" style="enable-background:new 0 0 512 512" xml:space="preserve" class=""><g><linearGradient id="a" x1="256" x2="256" y1="406" y2="31" gradientUnits="userSpaceOnUse"><stop stop-opacity="1" stop-color="#7952f7" offset="0"></stop><stop stop-opacity="1" stop-color="#8c98ff" offset="1"></stop></linearGradient><linearGradient id="b" x1="256" x2="256" y1="481" y2="211" gradientUnits="userSpaceOnUse"><stop stop-opacity="1" stop-color="#6d6d6d" offset="0"></stop><stop stop-opacity="1" stop-color="#eeeeee" offset="1"></stop></linearGradient><path fill="url(#a)" d="M256 286c-33.076 0-60 26.909-60 60s26.924 60 60 60 60-26.909 60-60-26.924-60-60-60zm165-135c0-66.167-53.818-120-120-120-31.67 0-61.934 12.788-84.492 35.405-68.262-20.771-137.813 23.086-152.11 88.843C27.104 166.645 0 201.156 0 241c0 49.629 41.371 90 91 90h53.086a14.973 14.973 0 0 0 14.502-11.177 15.034 15.034 0 0 0-1.758-11.748l15.82-27.568 17.52 10.313c5.566 3.281 12.539 2.651 17.373-1.523 7.002-5.977 14.736-10.503 23.672-13.828A14.993 14.993 0 0 0 241 261.406V241h30v20.405c0 6.27 3.896 11.88 9.785 14.063 8.936 3.325 16.67 7.852 23.672 13.828 4.863 4.175 11.865 4.805 17.373 1.523l17.52-10.313 15.82 27.568a15.038 15.038 0 0 0-1.758 11.748 14.973 14.973 0 0 0 14.502 11.177H421c49.629 0 91-40.371 91-90S470.629 151 421 151z" opacity="1" data-original="url(#a)" class=""></path><path fill="url(#b)" d="M382.301 367 360.7 354.699c.3-2.999.3-5.7.3-8.699 0-3.001 0-5.7-.3-8.701l21.601-11.999c3.3-2.1 5.999-5.4 6.899-9.3 1.199-3.9.601-7.8-1.5-11.4l-30-52.2c-1.8-3.301-5.101-6-9-6.901-3.9-1.199-8.101-.599-11.4 1.501l-21.901 12.9c-4.499-3.301-9.3-6-14.399-8.401V226c0-8.401-6.599-15-15-15h-60c-8.401 0-15 6.599-15 15v25.499c-5.099 2.401-9.901 5.099-14.399 8.401L174.699 247c-3.3-2.1-7.5-2.701-11.4-1.501-3.898.901-7.2 3.6-9 6.901l-30 52.2c-2.1 3.6-2.699 7.5-1.5 11.4.901 3.9 3.6 7.2 6.899 9.3l21.601 11.999c-.3 3.001-.3 5.7-.3 8.701 0 2.999 0 5.7.3 8.699L129.699 367c-3.3 1.8-5.999 5.099-6.899 9-1.199 3.9-.601 7.8 1.5 11.4l30 52.2c1.8 3.3 5.101 6 9 6.899 3.9 1.201 8.101.601 11.4-1.5l21.901-12.9c4.499 3.3 9.3 6 14.399 8.399V466c0 8.399 6.599 15 15 15h60c8.401 0 15-6.601 15-15v-25.501c5.099-2.399 9.901-5.099 14.399-8.399L337.3 445c3.3 2.1 7.5 2.701 11.4 1.5 3.898-.899 7.2-3.6 9-6.899l30-52.2c2.1-3.6 2.699-7.5 1.5-11.4-.901-3.901-3.6-7.201-6.899-9.001zM256 391c-24.901 0-45-20.101-45-45 0-24.901 20.099-45 45-45s45 20.099 45 45c0 24.899-20.099 45-45 45z" opacity="1" data-original="url(#b)" class=""></path></g></svg>