<svg xmlns="http://www.w3.org/2000/svg" version="1.1" xmlns:xlink="http://www.w3.org/1999/xlink" width="512" height="512" x="0" y="0" viewBox="0 0 512 512" style="enable-background:new 0 0 512 512" xml:space="preserve" class=""><g><linearGradient id="a" x1="256" x2="256" y1="362" y2="0" gradientUnits="userSpaceOnUse"><stop stop-opacity="1" stop-color="#afafaf" offset="0"></stop><stop stop-opacity="1" stop-color="#e3e3e3" offset="0.9806949806949807"></stop><stop stop-opacity="1" stop-color="#e3e3e3" offset="1"></stop></linearGradient><linearGradient id="b" x1="286" x2="286" y1="512" y2="60" gradientUnits="userSpaceOnUse"><stop stop-opacity="1" stop-color="#7952f7" offset="0"></stop><stop stop-opacity="1" stop-color="#8c98ff" offset="1"></stop></linearGradient><path fill="url(#a)" d="M482 152.699V135C482 60.599 421.399 0 347 0H165C90.601 0 30 60.599 30 135v17.699C12.599 159 0 175.499 0 195v92c0 24.898 20.099 45 45 45h60c8.401 0 15-6.601 15-15V165c0-8.401-6.599-15-15-15H60v-15c0-57.9 47.1-105 105-105h182c57.9 0 105 47.1 105 105v15h-45c-8.401 0-15 6.599-15 15v152c0 8.399 6.599 15 15 15h45l15 30 15-32.701c17.401-6 30-22.8 30-42.299v-92c0-19.501-12.599-36-30-42.301zM286 287h-60c0-16.553-13.447-31-30-31s-30 14.447-30 31c0 33.076 26.924 60 60 60h60c33.076 0 60-26.924 60-60 0-16.553-13.447-31-30-31s-30 14.447-30 31zm-60-62v-30c0-16.553-13.447-30-30-30s-30 13.447-30 30v30c0 16.553 13.447 31 30 31s30-14.447 30-31zm90-60c-16.553 0-30 13.447-30 30v30c0 16.553 13.447 31 30 31s30-14.447 30-31v-30c0-16.553-13.447-30-30-30z" opacity="1" data-original="url(#a)" class=""></path><path fill="url(#b)" d="M422 347V135c0-24.814-20.186-45-45-45H271V75c0-8.291-6.709-15-15-15s-15 6.709-15 15v15H135c-24.814 0-45 20.186-45 45v212c0 24.814 20.186 45 45 45h242c24.814 0 45-20.186 45-45zM181 195c0-8.291 6.709-15 15-15s15 6.709 15 15v30c0 8.291-6.709 16-15 16s-15-7.709-15-16zm105 137h-60c-24.814 0-45-20.186-45-45 0-8.291 6.709-15 15-15s15 6.709 15 15c0 8.262 6.738 15 15 15h60c8.262 0 15-6.738 15-15 0-8.291 6.709-15 15-15s15 6.709 15 15c0 24.814-20.186 45-45 45zm45-107c0 8.291-6.709 16-15 16s-15-7.709-15-16v-30c0-8.291 6.709-15 15-15s15 6.709 15 15zm136 107h-15v75c0 41.4-33.6 75-75 75h-78.701c1.501-4.801 2.701-9.6 2.701-15 0-24.9-20.099-45-45-45s-45 20.1-45 45c0 24.898 20.099 45 45 45h121c57.9 0 105-47.1 105-105v-77.701c-4.799 1.8-9.6 2.701-15 2.701z" opacity="1" data-original="url(#b)" class=""></path></g></svg>