<svg xmlns="http://www.w3.org/2000/svg" version="1.1" xmlns:xlink="http://www.w3.org/1999/xlink" width="512" height="512" x="0" y="0" viewBox="0 0 512 512" style="enable-background:new 0 0 512 512" xml:space="preserve" class=""><g><linearGradient id="a" x1="376.5" x2="376.5" y1="421" y2="46" gradientUnits="userSpaceOnUse"><stop stop-opacity="1" stop-color="#b8b8b8" offset="0"></stop><stop stop-opacity="1" stop-color="#ebebeb" offset="1"></stop></linearGradient><linearGradient id="b" x1="256" x2="256" y1="481" y2="31" gradientUnits="userSpaceOnUse"><stop stop-opacity="1" stop-color="#7952f7" offset="0"></stop><stop stop-opacity="1" stop-color="#8c98ff" offset="1"></stop></linearGradient><path fill="url(#a)" d="M256 211c-8.291 0-15 6.709-15 15v180c0 8.291 6.709 15 15 15s15-6.709 15-15V226c0-8.291-6.709-15-15-15zm226 2.699V61l-15-15-15 15v152.699c-17.4 6-30 22.8-30 42.301v60c0 8.399 6.599 15 15 15h60c8.401 0 15-6.601 15-15v-60c0-19.501-12.6-36.301-30-42.301z" opacity="1" data-original="url(#a)"></path><path fill="url(#b)" d="M467 391c-19.556 0-36.229 12.541-42.42 30H298.42c-6.192-17.459-22.864-30-42.42-30s-36.229 12.541-42.42 30H87.42c-6.192-17.459-22.864-30-42.42-30-24.814 0-45 20.186-45 45s20.186 45 45 45c19.556 0 36.229-12.541 42.42-30h126.16c6.192 17.459 22.864 30 42.42 30s36.229-12.541 42.42-30h126.16c6.192 17.459 22.864 30 42.42 30 24.814 0 45-20.186 45-45s-20.186-45-45-45zM15 61h106v165c0 8.399 6.599 15 15 15h240c8.401 0 15-6.601 15-15V61h106c8.401 0 15-6.601 15-15 0-8.401-6.599-15-15-15H15C6.599 31 0 37.599 0 46c0 8.399 6.599 15 15 15z" opacity="1" data-original="url(#b)" class=""></path></g></svg>