<svg xmlns="http://www.w3.org/2000/svg" version="1.1" xmlns:xlink="http://www.w3.org/1999/xlink" width="512" height="512" x="0" y="0" viewBox="0 0 512 512" style="enable-background:new 0 0 512 512" xml:space="preserve" class=""><g><linearGradient id="a" x1="252.675" x2="252.675" y1="613.197" y2="78.792" gradientTransform="rotate(45 256.066 260.675)" gradientUnits="userSpaceOnUse"><stop stop-opacity="1" stop-color="#8c98ff" offset="0"></stop><stop stop-opacity="1" stop-color="#7952f7" offset="1"></stop></linearGradient><linearGradient id="b" x1="252.675" x2="252.675" y1="423.792" y2="-98.443" gradientTransform="rotate(45 256.066 260.675)" gradientUnits="userSpaceOnUse"><stop stop-opacity="1" stop-color="#e5e5e5" offset="0"></stop><stop stop-opacity="1" stop-color="#b6b6b6" offset="0.9884169884169884"></stop><stop stop-opacity="1" stop-color="#fff2f4" offset="1"></stop></linearGradient><path fill="url(#a)" d="m435.312 225.181-53.033-95.459-95.459-53.033-79.125 79.125-71.807 29.38L106.507 257 95.9 267.607c-5.939 5.939-5.94 15.273 0 21.213L223.18 416.1c5.94 5.94 15.274 5.939 21.213 0L255 405.493l63.64-21.213 37.548-79.974zm-2.134 65.773c-5.863-5.863-15.351-5.863-21.213 0l-68.58 68.58c-5.863 5.863-5.863 15.351 0 21.213 5.863 5.863 15.351 5.863 21.213 0l68.58-68.58c5.863-5.862 5.863-15.35 0-21.213zM221.046 100.035c5.863-5.863 5.863-15.351 0-21.213-5.863-5.863-15.351-5.863-21.213 0l-68.58 68.58c-5.863 5.863-5.863 15.351 0 21.213 5.863 5.863 15.351 5.863 21.213 0zm-82.719 273.638c-29.251-29.251-76.825-29.241-106.066 0C6.066 399.869.804 480.371.017 496.239c-.197 4.257 1.378 8.359 4.381 11.363s7.106 4.578 11.363 4.381c15.868-.787 96.371-6.049 122.566-32.244 29.241-29.241 29.251-76.815 0-106.066z" opacity="1" data-original="url(#a)" class=""></path><path fill="url(#b)" d="M356.187 304.306 254.999 405.493l53.033 53.033c5.94 5.94 15.274 5.939 21.213 0l42.426-42.426c3.607-3.607 5.09-8.487 4.244-13.577zm-246.71-168.222c-5.09-.845-9.969.637-13.577 4.244l-42.427 42.427c-5.939 5.939-5.94 15.273 0 21.213l53.033 53.033 101.188-101.188zM507.603 4.397c-5.863-5.863-15.351-5.863-21.213 0l-24.356 24.355c-27.073-3.736-116.379-10.9-175.215 47.936l148.492 148.493c58.836-58.836 51.672-148.142 47.936-175.215l24.356-24.355c5.863-5.863 5.863-15.351 0-21.214zM329.246 246.394c17.546-17.546 17.546-46.093 0-63.639-17.547-17.547-46.093-17.547-63.64 0-17.547 17.546-17.547 46.093 0 63.639 17.547 17.547 46.093 17.547 63.64 0zM201.967 288.82l-63.64 63.64c-5.863 5.862-5.863 15.351 0 21.213 5.863 5.863 15.351 5.863 21.213 0l63.64-63.64c5.863-5.862 5.863-15.351 0-21.213s-15.351-5.862-21.213 0z" opacity="1" data-original="url(#b)" class=""></path></g></svg>