<svg xmlns="http://www.w3.org/2000/svg" version="1.1" xmlns:xlink="http://www.w3.org/1999/xlink" width="512" height="512" x="0" y="0" viewBox="0 0 512 512" style="enable-background:new 0 0 512 512" xml:space="preserve" class=""><g><linearGradient id="a" x1="256.024" x2="256.024" y1="512" y2="89.941" gradientUnits="userSpaceOnUse"><stop stop-opacity="1" stop-color="#7952f7" offset="0"></stop><stop stop-opacity="1" stop-color="#8c98ff" offset="1"></stop></linearGradient><linearGradient id="b" x1="256" x2="256" y1="439.702" y2="0" gradientUnits="userSpaceOnUse"><stop stop-opacity="1" stop-color="#cbcbcb" offset="0"></stop><stop stop-opacity="1" stop-color="#dcdcdc" offset="0.4555984555984556"></stop><stop stop-opacity="1" stop-color="#e7e7e7" offset="1"></stop></linearGradient><path fill="url(#a)" d="M286 512h-60c-24.814 0-45-20.186-45-45v-41.902c0-13.594-7.207-26.528-19.805-35.464-52.881-37.148-78.809-99.976-67.559-163.931 11.279-65.083 62.227-118.169 126.797-132.07 49.863-10.474 100.576 1.582 139.336 33.076C398.676 158.276 421 205.034 421 255c0 53.013-25.898 103.213-69.258 134.282C338.529 398.643 331 412.339 331 426.899V467c0 24.814-20.186 45-45 45z" opacity="1" data-original="url(#a)" class=""></path><path fill="url(#b)" d="M316 240H196a14.949 14.949 0 0 0-12.158 6.226 14.955 14.955 0 0 0-2.08 13.521l30 90c2.637 7.866 11.104 12.085 18.984 9.478 7.852-2.607 12.1-11.104 9.492-18.97L216.801 270h78.398l-23.438 70.254c-2.607 7.866 1.641 16.362 9.492 18.97 1.582.527 3.164.776 4.746.776 6.27 0 12.129-3.97 14.238-10.254l30-90a14.96 14.96 0 0 0-2.08-13.521A14.947 14.947 0 0 0 316 240zm-270 0H16c-8.291 0-15 6.709-15 15s6.709 15 15 15h30c8.291 0 15-6.709 15-15s-6.709-15-15-15zm450 0h-30c-8.291 0-15 6.709-15 15s6.709 15 15 15h30c8.291 0 15-6.709 15-15s-6.709-15-15-15zM96.889 392.886l-21.211 21.211c-5.859 5.859-5.859 15.352 0 21.211 2.93 2.93 6.768 4.395 10.605 4.395s7.676-1.465 10.605-4.395l21.211-21.211c5.859-5.859 5.859-15.352 0-21.211s-15.351-5.86-21.21 0zM415.111 74.692 393.9 95.903c-5.859 5.859-5.859 15.352 0 21.211 2.93 2.93 6.768 4.395 10.605 4.395s7.676-1.465 10.605-4.395l21.211-21.211c5.859-5.859 5.859-15.352 0-21.211s-15.35-5.859-21.21 0zM256 60c8.291 0 15-6.709 15-15V15c0-8.291-6.709-15-15-15s-15 6.709-15 15v30c0 8.291 6.709 15 15 15zm159.111 332.886c-5.859-5.859-15.352-5.859-21.211 0s-5.859 15.352 0 21.211l21.211 21.211c2.93 2.93 6.768 4.395 10.605 4.395s7.676-1.465 10.605-4.395c5.859-5.859 5.859-15.352 0-21.211zM96.889 74.692c-5.859-5.859-15.352-5.859-21.211 0s-5.859 15.352 0 21.211l21.211 21.211c2.93 2.93 6.768 4.395 10.605 4.395s7.676-1.465 10.605-4.395c5.859-5.859 5.859-15.352 0-21.211z" opacity="1" data-original="url(#b)" class=""></path></g></svg>